# Created using Meshport (https://github.com/random-geek/meshport).
mtllib materials.mtl
v -0.500000 0.125000 -1.000000
v -0.375000 0.125000 -1.000000
v -0.375000 0.125000 -1.450000
v -0.500000 0.125000 -1.450000
v -0.500000 0.000000 -1.450000
v -0.375000 0.000000 -1.450000
v -0.375000 0.000000 -1.000000
v -0.500000 0.000000 -1.000000
v -0.500000 1.875000 -1.000000
v -0.375000 1.875000 -1.000000
v -0.375000 1.875000 -1.125000
v -0.500000 1.875000 -1.125000
v -0.500000 0.125000 -1.125000
v -0.375000 0.125000 -1.125000
v -0.500000 0.950000 -1.400000
v -0.375000 0.950000 -1.400000
v -0.375000 0.950000 -1.450000
v -0.500000 0.950000 -1.450000
v -0.375000 0.125000 -1.400000
v -0.500000 0.125000 -1.400000
v -0.500000 1.875000 -1.400000
v -0.375000 1.875000 -1.400000
v -0.375000 1.875000 -1.450000
v -0.500000 1.875000 -1.450000
v -0.500000 1.050000 -1.450000
v -0.375000 1.050000 -1.450000
v -0.375000 1.050000 -1.400000
v -0.500000 1.050000 -1.400000
v -0.500000 2.000000 -1.450000
v -0.375000 2.000000 -1.450000
v -0.375000 2.000000 -1.500000
v -0.500000 2.000000 -1.500000
v -0.500000 0.000000 -1.500000
v -0.375000 0.000000 -1.500000
v -0.500000 0.950000 -1.125000
v -0.375000 0.950000 -1.125000
v -0.500000 0.900000 -1.400000
v -0.375000 0.900000 -1.400000
v -0.375000 0.900000 -1.125000
v -0.500000 0.900000 -1.125000
v -0.500000 1.050000 -1.125000
v -0.375000 1.050000 -1.125000
v -0.375000 1.050000 -1.350000
v -0.500000 1.050000 -1.350000
v -0.500000 0.950000 -1.350000
v -0.375000 0.950000 -1.350000
v -0.500000 1.100000 -1.125000
v -0.375000 1.100000 -1.125000
v -0.375000 1.100000 -1.400000
v -0.500000 1.100000 -1.400000
v -0.500000 2.000000 -1.000000
v -0.375000 2.000000 -1.000000
v -0.450000 0.900000 -1.125000
v -0.425000 0.900000 -1.125000
v -0.425000 0.900000 -1.400000
v -0.450000 0.900000 -1.400000
v -0.450000 0.125000 -1.400000
v -0.425000 0.125000 -1.400000
v -0.425000 0.125000 -1.125000
v -0.450000 0.125000 -1.125000
v -0.450000 1.875000 -1.125000
v -0.425000 1.875000 -1.125000
v -0.425000 1.875000 -1.400000
v -0.450000 1.875000 -1.400000
v -0.450000 1.100000 -1.400000
v -0.425000 1.100000 -1.400000
v -0.425000 1.100000 -1.125000
v -0.450000 1.100000 -1.125000
v 0.375000 0.125000 -1.000000
v 0.500000 0.125000 -1.000000
v 0.500000 0.125000 -1.450000
v 0.375000 0.125000 -1.450000
v 0.375000 0.000000 -1.450000
v 0.500000 0.000000 -1.450000
v 0.500000 0.000000 -1.000000
v 0.375000 0.000000 -1.000000
v 0.375000 1.875000 -1.000000
v 0.500000 1.875000 -1.000000
v 0.500000 1.875000 -1.125000
v 0.375000 1.875000 -1.125000
v 0.375000 0.125000 -1.125000
v 0.500000 0.125000 -1.125000
v 0.375000 0.950000 -1.400000
v 0.500000 0.950000 -1.400000
v 0.500000 0.950000 -1.450000
v 0.375000 0.950000 -1.450000
v 0.500000 0.125000 -1.400000
v 0.375000 0.125000 -1.400000
v 0.375000 1.875000 -1.400000
v 0.500000 1.875000 -1.400000
v 0.500000 1.875000 -1.450000
v 0.375000 1.875000 -1.450000
v 0.375000 1.050000 -1.450000
v 0.500000 1.050000 -1.450000
v 0.500000 1.050000 -1.400000
v 0.375000 1.050000 -1.400000
v 0.375000 2.000000 -1.450000
v 0.500000 2.000000 -1.450000
v 0.500000 2.000000 -1.500000
v 0.375000 2.000000 -1.500000
v 0.375000 0.000000 -1.500000
v 0.500000 0.000000 -1.500000
v 0.375000 0.950000 -1.125000
v 0.500000 0.950000 -1.125000
v 0.375000 0.900000 -1.400000
v 0.500000 0.900000 -1.400000
v 0.500000 0.900000 -1.125000
v 0.375000 0.900000 -1.125000
v 0.375000 1.050000 -1.125000
v 0.500000 1.050000 -1.125000
v 0.500000 1.050000 -1.350000
v 0.375000 1.050000 -1.350000
v 0.375000 0.950000 -1.350000
v 0.500000 0.950000 -1.350000
v 0.375000 1.100000 -1.125000
v 0.500000 1.100000 -1.125000
v 0.500000 1.100000 -1.400000
v 0.375000 1.100000 -1.400000
v 0.375000 2.000000 -1.000000
v 0.500000 2.000000 -1.000000
v 0.425000 0.900000 -1.125000
v 0.450000 0.900000 -1.125000
v 0.450000 0.900000 -1.400000
v 0.425000 0.900000 -1.400000
v 0.425000 0.125000 -1.400000
v 0.450000 0.125000 -1.400000
v 0.450000 0.125000 -1.125000
v 0.425000 0.125000 -1.125000
v 0.425000 1.875000 -1.125000
v 0.450000 1.875000 -1.125000
v 0.450000 1.875000 -1.400000
v 0.425000 1.875000 -1.400000
v 0.425000 1.100000 -1.400000
v 0.450000 1.100000 -1.400000
v 0.450000 1.100000 -1.125000
v 0.425000 1.100000 -1.125000
vt -0.500000 1.000000
vt -0.375000 1.000000
vt -0.375000 1.450000
vt -0.500000 1.450000
vt -0.500000 -0.450000
vt -0.375000 -0.450000
vt -0.375000 0.000000
vt -0.500000 0.000000
vt 1.000000 0.000000
vt 1.450000 0.000000
vt 1.450000 0.125000
vt 1.000000 0.125000
vt -0.450000 0.000000
vt 0.000000 0.000000
vt 0.000000 0.125000
vt -0.450000 0.125000
vt 1.375000 0.000000
vt 1.500000 0.000000
vt 1.500000 0.125000
vt 1.375000 0.125000
vt -0.375000 0.125000
vt -0.500000 0.125000
vt -0.375000 1.125000
vt -0.500000 1.125000
vt -0.500000 -0.125000
vt -0.375000 -0.125000
vt 1.125000 0.125000
vt 1.125000 1.875000
vt 1.000000 1.875000
vt -0.125000 0.125000
vt 0.000000 1.875000
vt -0.125000 1.875000
vt 1.500000 1.875000
vt 1.375000 1.875000
vt -0.375000 1.875000
vt -0.500000 1.875000
vt -0.500000 1.400000
vt -0.375000 1.400000
vt -0.375000 -0.400000
vt -0.500000 -0.400000
vt 1.400000 0.125000
vt 1.450000 0.950000
vt 1.400000 0.950000
vt -0.400000 0.125000
vt -0.400000 0.950000
vt -0.450000 0.950000
vt 1.500000 0.950000
vt 1.375000 0.950000
vt -0.375000 0.950000
vt -0.500000 0.950000
vt 1.400000 1.050000
vt 1.450000 1.050000
vt 1.450000 1.875000
vt 1.400000 1.875000
vt -0.450000 1.050000
vt -0.400000 1.050000
vt -0.400000 1.875000
vt -0.450000 1.875000
vt 1.375000 1.050000
vt 1.500000 1.050000
vt -0.500000 1.050000
vt -0.375000 1.050000
vt -0.375000 1.500000
vt -0.500000 1.500000
vt -0.500000 -0.500000
vt -0.375000 -0.500000
vt 1.500000 2.000000
vt 1.450000 2.000000
vt -0.450000 2.000000
vt -0.500000 2.000000
vt 1.375000 2.000000
vt -0.375000 2.000000
vt 1.125000 0.900000
vt 1.400000 0.900000
vt 1.125000 0.950000
vt -0.400000 0.900000
vt -0.125000 0.900000
vt -0.125000 0.950000
vt 1.375000 0.900000
vt 1.500000 0.900000
vt -0.500000 0.900000
vt -0.375000 0.900000
vt -0.375000 1.350000
vt -0.500000 1.350000
vt -0.500000 -0.350000
vt -0.375000 -0.350000
vt 1.350000 0.950000
vt 1.350000 1.050000
vt 1.125000 1.050000
vt -0.350000 0.950000
vt -0.125000 1.050000
vt -0.350000 1.050000
vt 1.400000 1.100000
vt 1.125000 1.100000
vt -0.125000 1.100000
vt -0.400000 1.100000
vt 1.500000 1.100000
vt 1.375000 1.100000
vt -0.375000 1.100000
vt -0.500000 1.100000
vt 1.000000 2.000000
vt 0.000000 2.000000
vt -0.450000 1.125000
vt -0.425000 1.125000
vt -0.425000 1.400000
vt -0.450000 1.400000
vt -0.450000 -0.400000
vt -0.425000 -0.400000
vt -0.425000 -0.125000
vt -0.450000 -0.125000
vt 1.425000 0.125000
vt 1.450000 0.900000
vt 1.425000 0.900000
vt -0.425000 0.125000
vt -0.425000 0.900000
vt -0.450000 0.900000
vt 1.425000 1.100000
vt 1.450000 1.100000
vt 1.425000 1.875000
vt -0.450000 1.100000
vt -0.425000 1.100000
vt -0.425000 1.875000
vt 0.375000 1.000000
vt 0.500000 1.000000
vt 0.500000 1.450000
vt 0.375000 1.450000
vt 0.375000 -0.450000
vt 0.500000 -0.450000
vt 0.500000 0.000000
vt 0.375000 0.000000
vt 0.625000 0.000000
vt 0.625000 0.125000
vt 0.500000 0.125000
vt 0.375000 0.125000
vt 0.500000 1.125000
vt 0.375000 1.125000
vt 0.375000 -0.125000
vt 0.500000 -0.125000
vt 0.625000 1.875000
vt 0.500000 1.875000
vt 0.375000 1.875000
vt 0.375000 1.400000
vt 0.500000 1.400000
vt 0.500000 -0.400000
vt 0.375000 -0.400000
vt 0.625000 0.950000
vt 0.500000 0.950000
vt 0.375000 0.950000
vt 0.500000 1.050000
vt 0.625000 1.050000
vt 0.375000 1.050000
vt 0.500000 1.500000
vt 0.375000 1.500000
vt 0.375000 -0.500000
vt 0.500000 -0.500000
vt 0.625000 2.000000
vt 0.500000 2.000000
vt 0.375000 2.000000
vt 0.500000 0.900000
vt 0.625000 0.900000
vt 0.375000 0.900000
vt 0.500000 1.350000
vt 0.375000 1.350000
vt 0.375000 -0.350000
vt 0.500000 -0.350000
vt 0.625000 1.100000
vt 0.500000 1.100000
vt 0.375000 1.100000
vt 0.425000 1.125000
vt 0.450000 1.125000
vt 0.450000 1.400000
vt 0.425000 1.400000
vt 0.425000 -0.400000
vt 0.450000 -0.400000
vt 0.450000 -0.125000
vt 0.425000 -0.125000
vt 0.550000 0.125000
vt 0.575000 0.125000
vt 0.575000 0.900000
vt 0.550000 0.900000
vt 0.425000 0.125000
vt 0.450000 0.125000
vt 0.450000 0.900000
vt 0.425000 0.900000
vt 0.550000 1.100000
vt 0.575000 1.100000
vt 0.575000 1.875000
vt 0.550000 1.875000
vt 0.425000 1.100000
vt 0.450000 1.100000
vt 0.450000 1.875000
vt 0.425000 1.875000
vn 0.000000 1.000000 0.000000
vn 0.000000 -1.000000 0.000000
vn 1.000000 0.000000 0.000000
vn -1.000000 0.000000 0.000000
vn 0.000000 0.000000 -1.000000
vn 0.000000 0.000000 1.000000
usemtl door.png
f 1/1/1 2/2/1 3/3/1 4/4/1
f 5/5/2 6/6/2 7/7/2 8/8/2
f 7/9/3 6/10/3 3/11/3 2/12/3
f 5/13/4 8/14/4 1/15/4 4/16/4
f 6/17/5 5/18/5 4/19/5 3/20/5
f 8/8/6 7/7/6 2/21/6 1/22/6
f 9/1/1 10/2/1 11/23/1 12/24/1
f 13/25/2 14/26/2 2/7/2 1/8/2
f 2/12/3 14/27/3 11/28/3 10/29/3
f 13/30/4 1/15/4 9/31/4 12/32/4
f 14/20/5 13/19/5 12/33/5 11/34/5
f 1/22/6 2/21/6 10/35/6 9/36/6
f 15/37/1 16/38/1 17/3/1 18/4/1
f 4/5/2 3/6/2 19/39/2 20/40/2
f 19/41/3 3/11/3 17/42/3 16/43/3
f 4/16/4 20/44/4 15/45/4 18/46/4
f 3/20/5 4/19/5 18/47/5 17/48/5
f 20/22/6 19/21/6 16/49/6 15/50/6
f 21/37/1 22/38/1 23/3/1 24/4/1
f 25/5/2 26/6/2 27/39/2 28/40/2
f 27/51/3 26/52/3 23/53/3 22/54/3
f 25/55/4 28/56/4 21/57/4 24/58/4
f 26/59/5 25/60/5 24/33/5 23/34/5
f 28/61/6 27/62/6 22/35/6 21/36/6
f 29/4/1 30/3/1 31/63/1 32/64/1
f 33/65/2 34/66/2 6/6/2 5/5/2
f 6/10/3 34/18/3 31/67/3 30/68/3
f 33/8/4 5/13/4 29/69/4 32/70/4
f 34/17/5 33/18/5 32/67/5 31/71/5
f 5/8/6 6/7/6 30/72/6 29/70/6
f 35/24/1 36/23/1 16/38/1 15/37/1
f 37/40/2 38/39/2 39/26/2 40/25/2
f 39/73/3 38/74/3 16/43/3 36/75/3
f 37/76/4 40/77/4 35/78/4 15/45/4
f 38/79/5 37/80/5 15/47/5 16/48/5
f 40/81/6 39/82/6 36/49/6 35/50/6
f 41/24/1 42/23/1 43/83/1 44/84/1
f 45/85/2 46/86/2 36/26/2 35/25/2
f 36/75/3 46/87/3 43/88/3 42/89/3
f 45/90/4 35/78/4 41/91/4 44/92/4
f 46/48/5 45/47/5 44/60/5 43/59/5
f 35/50/6 36/49/6 42/62/6 41/61/6
f 47/24/1 48/23/1 49/38/1 50/37/1
f 28/40/2 27/39/2 42/26/2 41/25/2
f 42/89/3 27/51/3 49/93/3 48/94/3
f 28/56/4 41/91/4 47/95/4 50/96/4
f 27/59/5 28/60/5 50/97/5 49/98/5
f 41/61/6 42/62/6 48/99/6 47/100/6
f 51/1/1 52/2/1 30/3/1 29/4/1
f 24/5/2 23/6/2 10/7/2 9/8/2
f 10/29/3 23/53/3 30/68/3 52/101/3
f 24/58/4 9/31/4 51/102/4 29/69/4
f 23/34/5 24/33/5 29/67/5 30/71/5
f 9/36/6 10/35/6 52/72/6 51/70/6
f 53/103/1 54/104/1 55/105/1 56/106/1
f 57/107/2 58/108/2 59/109/2 60/110/2
f 59/27/3 58/41/3 55/74/3 54/73/3
f 57/44/4 60/30/4 53/77/4 56/76/4
f 58/111/5 57/11/5 56/112/5 55/113/5
f 60/16/6 59/114/6 54/115/6 53/116/6
f 61/103/1 62/104/1 63/105/1 64/106/1
f 65/107/2 66/108/2 67/109/2 68/110/2
f 67/94/3 66/93/3 63/54/3 62/28/3
f 65/96/4 68/95/4 61/32/4 64/57/4
f 66/117/5 65/118/5 64/53/5 63/119/5
f 68/120/6 67/121/6 62/122/6 61/58/6
f 69/123/1 70/124/1 71/125/1 72/126/1
f 73/127/2 74/128/2 75/129/2 76/130/2
f 75/9/3 74/10/3 71/11/3 70/12/3
f 73/13/4 76/14/4 69/15/4 72/16/4
f 74/129/5 73/131/5 72/132/5 71/133/5
f 76/130/6 75/129/6 70/133/6 69/134/6
f 77/123/1 78/124/1 79/135/1 80/136/1
f 81/137/2 82/138/2 70/129/2 69/130/2
f 70/12/3 82/27/3 79/28/3 78/29/3
f 81/30/4 69/15/4 77/31/4 80/32/4
f 82/133/5 81/132/5 80/139/5 79/140/5
f 69/134/6 70/133/6 78/140/6 77/141/6
f 83/142/1 84/143/1 85/125/1 86/126/1
f 72/127/2 71/128/2 87/144/2 88/145/2
f 87/41/3 71/11/3 85/42/3 84/43/3
f 72/16/4 88/44/4 83/45/4 86/46/4
f 71/133/5 72/132/5 86/146/5 85/147/5
f 88/134/6 87/133/6 84/147/6 83/148/6
f 89/142/1 90/143/1 91/125/1 92/126/1
f 93/127/2 94/128/2 95/144/2 96/145/2
f 95/51/3 94/52/3 91/53/3 90/54/3
f 93/55/4 96/56/4 89/57/4 92/58/4
f 94/149/5 93/150/5 92/139/5 91/140/5
f 96/151/6 95/149/6 90/140/6 89/141/6
f 97/126/1 98/125/1 99/152/1 100/153/1
f 101/154/2 102/155/2 74/128/2 73/127/2
f 74/10/3 102/18/3 99/67/3 98/68/3
f 101/8/4 73/13/4 97/69/4 100/70/4
f 102/129/5 101/131/5 100/156/5 99/157/5
f 73/130/6 74/129/6 98/157/6 97/158/6
f 103/136/1 104/135/1 84/143/1 83/142/1
f 105/145/2 106/144/2 107/138/2 108/137/2
f 107/73/3 106/74/3 84/43/3 104/75/3
f 105/76/4 108/77/4 103/78/4 83/45/4
f 106/159/5 105/160/5 83/146/5 84/147/5
f 108/161/6 107/159/6 104/147/6 103/148/6
f 109/136/1 110/135/1 111/162/1 112/163/1
f 113/164/2 114/165/2 104/138/2 103/137/2
f 104/75/3 114/87/3 111/88/3 110/89/3
f 113/90/4 103/78/4 109/91/4 112/92/4
f 114/147/5 113/146/5 112/150/5 111/149/5
f 103/148/6 104/147/6 110/149/6 109/151/6
f 115/136/1 116/135/1 117/143/1 118/142/1
f 96/145/2 95/144/2 110/138/2 109/137/2
f 110/89/3 95/51/3 117/93/3 116/94/3
f 96/56/4 109/91/4 115/95/4 118/96/4
f 95/149/5 96/150/5 118/166/5 117/167/5
f 109/151/6 110/149/6 116/167/6 115/168/6
f 119/123/1 120/124/1 98/125/1 97/126/1
f 92/127/2 91/128/2 78/129/2 77/130/2
f 78/29/3 91/53/3 98/68/3 120/101/3
f 92/58/4 77/31/4 119/102/4 97/69/4
f 91/140/5 92/139/5 97/156/5 98/157/5
f 77/141/6 78/140/6 120/157/6 119/158/6
f 121/169/1 122/170/1 123/171/1 124/172/1
f 125/173/2 126/174/2 127/175/2 128/176/2
f 127/27/3 126/41/3 123/74/3 122/73/3
f 125/44/4 128/30/4 121/77/4 124/76/4
f 126/177/5 125/178/5 124/179/5 123/180/5
f 128/181/6 127/182/6 122/183/6 121/184/6
f 129/169/1 130/170/1 131/171/1 132/172/1
f 133/173/2 134/174/2 135/175/2 136/176/2
f 135/94/3 134/93/3 131/54/3 130/28/3
f 133/96/4 136/95/4 129/32/4 132/57/4
f 134/185/5 133/186/5 132/187/5 131/188/5
f 136/189/6 135/190/6 130/191/6 129/192/6
