# Created using Meshport (https://github.com/random-geek/meshport).
mtllib materials.mtl
v -0.500000 0.125000 -1.000000
v -0.375000 0.125000 -1.000000
v -0.375000 0.125000 -1.450000
v -0.500000 0.125000 -1.450000
v -0.500000 0.000000 -1.450000
v -0.375000 0.000000 -1.450000
v -0.375000 0.000000 -1.000000
v -0.500000 0.000000 -1.000000
v -0.500000 1.875000 -1.000000
v -0.375000 1.875000 -1.000000
v -0.375000 1.875000 -1.125000
v -0.500000 1.875000 -1.125000
v -0.500000 0.125000 -1.125000
v -0.375000 0.125000 -1.125000
v -0.500000 0.950000 -1.400000
v -0.375000 0.950000 -1.400000
v -0.375000 0.950000 -1.450000
v -0.500000 0.950000 -1.450000
v -0.375000 0.125000 -1.400000
v -0.500000 0.125000 -1.400000
v -0.500000 1.875000 -1.400000
v -0.375000 1.875000 -1.400000
v -0.375000 1.875000 -1.450000
v -0.500000 1.875000 -1.450000
v -0.500000 1.050000 -1.450000
v -0.375000 1.050000 -1.450000
v -0.375000 1.050000 -1.400000
v -0.500000 1.050000 -1.400000
v -0.500000 2.000000 -1.450000
v -0.375000 2.000000 -1.450000
v -0.375000 2.000000 -1.500000
v -0.500000 2.000000 -1.500000
v -0.500000 0.000000 -1.500000
v -0.375000 0.000000 -1.500000
v -0.500000 0.950000 -1.125000
v -0.375000 0.950000 -1.125000
v -0.500000 0.900000 -1.400000
v -0.375000 0.900000 -1.400000
v -0.375000 0.900000 -1.125000
v -0.500000 0.900000 -1.125000
v -0.500000 1.050000 -1.125000
v -0.375000 1.050000 -1.125000
v -0.375000 1.050000 -1.350000
v -0.500000 1.050000 -1.350000
v -0.500000 0.950000 -1.350000
v -0.375000 0.950000 -1.350000
v -0.500000 1.100000 -1.125000
v -0.375000 1.100000 -1.125000
v -0.375000 1.100000 -1.400000
v -0.500000 1.100000 -1.400000
v -0.500000 2.000000 -1.000000
v -0.375000 2.000000 -1.000000
v -0.450000 0.900000 -1.125000
v -0.425000 0.900000 -1.125000
v -0.425000 0.900000 -1.400000
v -0.450000 0.900000 -1.400000
v -0.450000 0.125000 -1.400000
v -0.425000 0.125000 -1.400000
v -0.425000 0.125000 -1.125000
v -0.450000 0.125000 -1.125000
v -0.450000 1.875000 -1.125000
v -0.425000 1.875000 -1.125000
v -0.425000 1.875000 -1.400000
v -0.450000 1.875000 -1.400000
v -0.450000 1.100000 -1.400000
v -0.425000 1.100000 -1.400000
v -0.425000 1.100000 -1.125000
v -0.450000 1.100000 -1.125000
vt -0.500000 1.000000
vt -0.375000 1.000000
vt -0.375000 1.450000
vt -0.500000 1.450000
vt -0.500000 -0.450000
vt -0.375000 -0.450000
vt -0.375000 0.000000
vt -0.500000 0.000000
vt 1.000000 0.000000
vt 1.450000 0.000000
vt 1.450000 0.125000
vt 1.000000 0.125000
vt -0.450000 0.000000
vt 0.000000 0.000000
vt 0.000000 0.125000
vt -0.450000 0.125000
vt 1.375000 0.000000
vt 1.500000 0.000000
vt 1.500000 0.125000
vt 1.375000 0.125000
vt -0.375000 0.125000
vt -0.500000 0.125000
vt -0.375000 1.125000
vt -0.500000 1.125000
vt -0.500000 -0.125000
vt -0.375000 -0.125000
vt 1.125000 0.125000
vt 1.125000 1.875000
vt 1.000000 1.875000
vt -0.125000 0.125000
vt 0.000000 1.875000
vt -0.125000 1.875000
vt 1.500000 1.875000
vt 1.375000 1.875000
vt -0.375000 1.875000
vt -0.500000 1.875000
vt -0.500000 1.400000
vt -0.375000 1.400000
vt -0.375000 -0.400000
vt -0.500000 -0.400000
vt 1.400000 0.125000
vt 1.450000 0.950000
vt 1.400000 0.950000
vt -0.400000 0.125000
vt -0.400000 0.950000
vt -0.450000 0.950000
vt 1.500000 0.950000
vt 1.375000 0.950000
vt -0.375000 0.950000
vt -0.500000 0.950000
vt 1.400000 1.050000
vt 1.450000 1.050000
vt 1.450000 1.875000
vt 1.400000 1.875000
vt -0.450000 1.050000
vt -0.400000 1.050000
vt -0.400000 1.875000
vt -0.450000 1.875000
vt 1.375000 1.050000
vt 1.500000 1.050000
vt -0.500000 1.050000
vt -0.375000 1.050000
vt -0.375000 1.500000
vt -0.500000 1.500000
vt -0.500000 -0.500000
vt -0.375000 -0.500000
vt 1.500000 2.000000
vt 1.450000 2.000000
vt -0.450000 2.000000
vt -0.500000 2.000000
vt 1.375000 2.000000
vt -0.375000 2.000000
vt 1.125000 0.900000
vt 1.400000 0.900000
vt 1.125000 0.950000
vt -0.400000 0.900000
vt -0.125000 0.900000
vt -0.125000 0.950000
vt 1.375000 0.900000
vt 1.500000 0.900000
vt -0.500000 0.900000
vt -0.375000 0.900000
vt -0.375000 1.350000
vt -0.500000 1.350000
vt -0.500000 -0.350000
vt -0.375000 -0.350000
vt 1.350000 0.950000
vt 1.350000 1.050000
vt 1.125000 1.050000
vt -0.350000 0.950000
vt -0.125000 1.050000
vt -0.350000 1.050000
vt 1.400000 1.100000
vt 1.125000 1.100000
vt -0.125000 1.100000
vt -0.400000 1.100000
vt 1.500000 1.100000
vt 1.375000 1.100000
vt -0.375000 1.100000
vt -0.500000 1.100000
vt 1.000000 2.000000
vt 0.000000 2.000000
vt -0.450000 1.125000
vt -0.425000 1.125000
vt -0.425000 1.400000
vt -0.450000 1.400000
vt -0.450000 -0.400000
vt -0.425000 -0.400000
vt -0.425000 -0.125000
vt -0.450000 -0.125000
vt 1.425000 0.125000
vt 1.450000 0.900000
vt 1.425000 0.900000
vt -0.425000 0.125000
vt -0.425000 0.900000
vt -0.450000 0.900000
vt 1.425000 1.100000
vt 1.450000 1.100000
vt 1.425000 1.875000
vt -0.450000 1.100000
vt -0.425000 1.100000
vt -0.425000 1.875000
vn 0.000000 1.000000 0.000000
vn 0.000000 -1.000000 0.000000
vn 1.000000 0.000000 0.000000
vn -1.000000 0.000000 0.000000
vn 0.000000 0.000000 -1.000000
vn 0.000000 0.000000 1.000000
usemtl door.png
f 1/1/1 2/2/1 3/3/1 4/4/1
f 5/5/2 6/6/2 7/7/2 8/8/2
f 7/9/3 6/10/3 3/11/3 2/12/3
f 5/13/4 8/14/4 1/15/4 4/16/4
f 6/17/5 5/18/5 4/19/5 3/20/5
f 8/8/6 7/7/6 2/21/6 1/22/6
f 9/1/1 10/2/1 11/23/1 12/24/1
f 13/25/2 14/26/2 2/7/2 1/8/2
f 2/12/3 14/27/3 11/28/3 10/29/3
f 13/30/4 1/15/4 9/31/4 12/32/4
f 14/20/5 13/19/5 12/33/5 11/34/5
f 1/22/6 2/21/6 10/35/6 9/36/6
f 15/37/1 16/38/1 17/3/1 18/4/1
f 4/5/2 3/6/2 19/39/2 20/40/2
f 19/41/3 3/11/3 17/42/3 16/43/3
f 4/16/4 20/44/4 15/45/4 18/46/4
f 3/20/5 4/19/5 18/47/5 17/48/5
f 20/22/6 19/21/6 16/49/6 15/50/6
f 21/37/1 22/38/1 23/3/1 24/4/1
f 25/5/2 26/6/2 27/39/2 28/40/2
f 27/51/3 26/52/3 23/53/3 22/54/3
f 25/55/4 28/56/4 21/57/4 24/58/4
f 26/59/5 25/60/5 24/33/5 23/34/5
f 28/61/6 27/62/6 22/35/6 21/36/6
f 29/4/1 30/3/1 31/63/1 32/64/1
f 33/65/2 34/66/2 6/6/2 5/5/2
f 6/10/3 34/18/3 31/67/3 30/68/3
f 33/8/4 5/13/4 29/69/4 32/70/4
f 34/17/5 33/18/5 32/67/5 31/71/5
f 5/8/6 6/7/6 30/72/6 29/70/6
f 35/24/1 36/23/1 16/38/1 15/37/1
f 37/40/2 38/39/2 39/26/2 40/25/2
f 39/73/3 38/74/3 16/43/3 36/75/3
f 37/76/4 40/77/4 35/78/4 15/45/4
f 38/79/5 37/80/5 15/47/5 16/48/5
f 40/81/6 39/82/6 36/49/6 35/50/6
f 41/24/1 42/23/1 43/83/1 44/84/1
f 45/85/2 46/86/2 36/26/2 35/25/2
f 36/75/3 46/87/3 43/88/3 42/89/3
f 45/90/4 35/78/4 41/91/4 44/92/4
f 46/48/5 45/47/5 44/60/5 43/59/5
f 35/50/6 36/49/6 42/62/6 41/61/6
f 47/24/1 48/23/1 49/38/1 50/37/1
f 28/40/2 27/39/2 42/26/2 41/25/2
f 42/89/3 27/51/3 49/93/3 48/94/3
f 28/56/4 41/91/4 47/95/4 50/96/4
f 27/59/5 28/60/5 50/97/5 49/98/5
f 41/61/6 42/62/6 48/99/6 47/100/6
f 51/1/1 52/2/1 30/3/1 29/4/1
f 24/5/2 23/6/2 10/7/2 9/8/2
f 10/29/3 23/53/3 30/68/3 52/101/3
f 24/58/4 9/31/4 51/102/4 29/69/4
f 23/34/5 24/33/5 29/67/5 30/71/5
f 9/36/6 10/35/6 52/72/6 51/70/6
f 53/103/1 54/104/1 55/105/1 56/106/1
f 57/107/2 58/108/2 59/109/2 60/110/2
f 59/27/3 58/41/3 55/74/3 54/73/3
f 57/44/4 60/30/4 53/77/4 56/76/4
f 58/111/5 57/11/5 56/112/5 55/113/5
f 60/16/6 59/114/6 54/115/6 53/116/6
f 61/103/1 62/104/1 63/105/1 64/106/1
f 65/107/2 66/108/2 67/109/2 68/110/2
f 67/94/3 66/93/3 63/54/3 62/28/3
f 65/96/4 68/95/4 61/32/4 64/57/4
f 66/117/5 65/118/5 64/53/5 63/119/5
f 68/120/6 67/121/6 62/122/6 61/58/6
