# Created using Meshport (https://github.com/random-geek/meshport).
mtllib materials.mtl
v 0.000000 0.062500 -0.875000
v 1.000000 0.062500 -0.875000
v 1.000000 0.062500 -1.000000
v 0.000000 0.062500 -1.000000
v 0.000000 0.000000 -1.000000
v 1.000000 0.000000 -1.000000
v 1.000000 0.000000 -0.875000
v 0.000000 0.000000 -0.875000
v 0.000000 0.937500 -0.875000
v 0.062500 0.937500 -0.875000
v 0.062500 0.937500 -1.000000
v 0.000000 0.937500 -1.000000
v 0.062500 0.062500 -1.000000
v 0.062500 0.062500 -0.875000
v 0.437500 0.937500 -0.875000
v 0.562500 0.937500 -0.875000
v 0.562500 0.937500 -1.000000
v 0.437500 0.937500 -1.000000
v 0.437500 0.062500 -1.000000
v 0.562500 0.062500 -1.000000
v 0.562500 0.062500 -0.875000
v 0.437500 0.062500 -0.875000
v 0.937500 0.937500 -0.875000
v 1.000000 0.937500 -0.875000
v 1.000000 0.937500 -1.000000
v 0.937500 0.937500 -1.000000
v 0.937500 0.062500 -1.000000
v 0.937500 0.062500 -0.875000
v 0.000000 1.000000 -0.875000
v 1.000000 1.000000 -0.875000
v 1.000000 1.000000 -1.000000
v 0.000000 1.000000 -1.000000
v 0.062500 0.312500 -0.875000
v 0.437500 0.312500 -0.875000
v 0.437500 0.312500 -1.000000
v 0.062500 0.312500 -1.000000
v 0.062500 0.187500 -1.000000
v 0.437500 0.187500 -1.000000
v 0.437500 0.187500 -0.875000
v 0.062500 0.187500 -0.875000
v 0.562500 0.312500 -0.875000
v 0.937500 0.312500 -0.875000
v 0.937500 0.312500 -1.000000
v 0.562500 0.312500 -1.000000
v 0.562500 0.187500 -1.000000
v 0.937500 0.187500 -1.000000
v 0.937500 0.187500 -0.875000
v 0.562500 0.187500 -0.875000
v 0.062500 0.562500 -0.875000
v 0.437500 0.562500 -0.875000
v 0.437500 0.562500 -1.000000
v 0.062500 0.562500 -1.000000
v 0.062500 0.437500 -1.000000
v 0.437500 0.437500 -1.000000
v 0.437500 0.437500 -0.875000
v 0.062500 0.437500 -0.875000
v 0.562500 0.562500 -0.875000
v 0.937500 0.562500 -0.875000
v 0.937500 0.562500 -1.000000
v 0.562500 0.562500 -1.000000
v 0.562500 0.437500 -1.000000
v 0.937500 0.437500 -1.000000
v 0.937500 0.437500 -0.875000
v 0.562500 0.437500 -0.875000
v 0.062500 0.812500 -0.875000
v 0.437500 0.812500 -0.875000
v 0.437500 0.812500 -1.000000
v 0.062500 0.812500 -1.000000
v 0.062500 0.687500 -1.000000
v 0.437500 0.687500 -1.000000
v 0.437500 0.687500 -0.875000
v 0.062500 0.687500 -0.875000
v 0.562500 0.812500 -0.875000
v 0.937500 0.812500 -0.875000
v 0.937500 0.812500 -1.000000
v 0.562500 0.812500 -1.000000
v 0.562500 0.687500 -1.000000
v 0.937500 0.687500 -1.000000
v 0.937500 0.687500 -0.875000
v 0.562500 0.687500 -0.875000
vt 0.000000 0.875000
vt 1.000000 0.875000
vt 1.000000 1.000000
vt 0.000000 1.000000
vt 0.000000 0.000000
vt 1.000000 0.000000
vt 1.000000 0.125000
vt 0.000000 0.125000
vt 0.875000 0.000000
vt 1.000000 0.062500
vt 0.875000 0.062500
vt 0.125000 0.000000
vt 0.125000 0.062500
vt 0.000000 0.062500
vt 0.062500 0.875000
vt 0.062500 1.000000
vt 0.062500 0.000000
vt 0.062500 0.125000
vt 1.000000 0.937500
vt 0.875000 0.937500
vt 0.125000 0.937500
vt 0.000000 0.937500
vt 0.937500 0.062500
vt 0.937500 0.937500
vt 0.062500 0.062500
vt 0.062500 0.937500
vt 0.437500 0.875000
vt 0.562500 0.875000
vt 0.562500 1.000000
vt 0.437500 1.000000
vt 0.437500 0.000000
vt 0.562500 0.000000
vt 0.562500 0.125000
vt 0.437500 0.125000
vt 0.437500 0.062500
vt 0.562500 0.062500
vt 0.562500 0.937500
vt 0.437500 0.937500
vt 0.937500 0.875000
vt 0.937500 1.000000
vt 0.937500 0.000000
vt 0.937500 0.125000
vt 0.875000 1.000000
vt 0.125000 1.000000
vt 0.875000 0.187500
vt 1.000000 0.187500
vt 1.000000 0.312500
vt 0.875000 0.312500
vt 0.000000 0.187500
vt 0.125000 0.187500
vt 0.125000 0.312500
vt 0.000000 0.312500
vt 0.562500 0.187500
vt 0.937500 0.187500
vt 0.937500 0.312500
vt 0.562500 0.312500
vt 0.062500 0.187500
vt 0.437500 0.187500
vt 0.437500 0.312500
vt 0.062500 0.312500
vt 0.875000 0.437500
vt 1.000000 0.437500
vt 1.000000 0.562500
vt 0.875000 0.562500
vt 0.000000 0.437500
vt 0.125000 0.437500
vt 0.125000 0.562500
vt 0.000000 0.562500
vt 0.562500 0.437500
vt 0.937500 0.437500
vt 0.937500 0.562500
vt 0.562500 0.562500
vt 0.062500 0.437500
vt 0.437500 0.437500
vt 0.437500 0.562500
vt 0.062500 0.562500
vt 0.875000 0.687500
vt 1.000000 0.687500
vt 1.000000 0.812500
vt 0.875000 0.812500
vt 0.000000 0.687500
vt 0.125000 0.687500
vt 0.125000 0.812500
vt 0.000000 0.812500
vt 0.562500 0.687500
vt 0.937500 0.687500
vt 0.937500 0.812500
vt 0.562500 0.812500
vt 0.062500 0.687500
vt 0.437500 0.687500
vt 0.437500 0.812500
vt 0.062500 0.812500
vn 0.000000 1.000000 0.000000
vn 0.000000 -1.000000 0.000000
vn 1.000000 0.000000 0.000000
vn -1.000000 0.000000 0.000000
vn 0.000000 0.000000 -1.000000
vn 0.000000 0.000000 1.000000
usemtl window.png
f 1/1/1 2/2/1 3/3/1 4/4/1
f 5/5/2 6/6/2 7/7/2 8/8/2
f 7/9/3 6/6/3 3/10/3 2/11/3
f 5/5/4 8/12/4 1/13/4 4/14/4
f 6/5/5 5/6/5 4/10/5 3/14/5
f 8/5/6 7/6/6 2/10/6 1/14/6
f 9/1/1 10/15/1 11/16/1 12/4/1
f 4/5/2 13/17/2 14/18/2 1/8/2
f 14/11/3 13/10/3 11/19/3 10/20/3
f 4/14/4 1/13/4 9/21/4 12/22/4
f 13/23/5 4/10/5 12/19/5 11/24/5
f 1/14/6 14/25/6 10/26/6 9/22/6
f 15/27/1 16/28/1 17/29/1 18/30/1
f 19/31/2 20/32/2 21/33/2 22/34/2
f 21/11/3 20/10/3 17/19/3 16/20/3
f 19/14/4 22/13/4 15/21/4 18/22/4
f 20/35/5 19/36/5 18/37/5 17/38/5
f 22/35/6 21/36/6 16/37/6 15/38/6
f 23/39/1 24/2/1 25/3/1 26/40/1
f 27/41/2 3/6/2 2/7/2 28/42/2
f 2/11/3 3/10/3 25/19/3 24/20/3
f 27/14/4 28/13/4 23/21/4 26/22/4
f 3/14/5 27/25/5 26/26/5 25/22/5
f 28/23/6 2/10/6 24/19/6 23/24/6
f 29/1/1 30/2/1 31/3/1 32/4/1
f 12/5/2 25/6/2 24/7/2 9/8/2
f 24/20/3 25/19/3 31/3/3 30/43/3
f 12/22/4 9/21/4 29/44/4 32/4/4
f 25/22/5 12/19/5 32/3/5 31/4/5
f 9/22/6 24/19/6 30/3/6 29/4/6
f 33/15/1 34/27/1 35/30/1 36/16/1
f 37/17/2 38/31/2 39/34/2 40/18/2
f 39/45/3 38/46/3 35/47/3 34/48/3
f 37/49/4 40/50/4 33/51/4 36/52/4
f 38/53/5 37/54/5 36/55/5 35/56/5
f 40/57/6 39/58/6 34/59/6 33/60/6
f 41/28/1 42/39/1 43/40/1 44/29/1
f 45/32/2 46/41/2 47/42/2 48/33/2
f 47/45/3 46/46/3 43/47/3 42/48/3
f 45/49/4 48/50/4 41/51/4 44/52/4
f 46/57/5 45/58/5 44/59/5 43/60/5
f 48/53/6 47/54/6 42/55/6 41/56/6
f 49/15/1 50/27/1 51/30/1 52/16/1
f 53/17/2 54/31/2 55/34/2 56/18/2
f 55/61/3 54/62/3 51/63/3 50/64/3
f 53/65/4 56/66/4 49/67/4 52/68/4
f 54/69/5 53/70/5 52/71/5 51/72/5
f 56/73/6 55/74/6 50/75/6 49/76/6
f 57/28/1 58/39/1 59/40/1 60/29/1
f 61/32/2 62/41/2 63/42/2 64/33/2
f 63/61/3 62/62/3 59/63/3 58/64/3
f 61/65/4 64/66/4 57/67/4 60/68/4
f 62/73/5 61/74/5 60/75/5 59/76/5
f 64/69/6 63/70/6 58/71/6 57/72/6
f 65/15/1 66/27/1 67/30/1 68/16/1
f 69/17/2 70/31/2 71/34/2 72/18/2
f 71/77/3 70/78/3 67/79/3 66/80/3
f 69/81/4 72/82/4 65/83/4 68/84/4
f 70/85/5 69/86/5 68/87/5 67/88/5
f 72/89/6 71/90/6 66/91/6 65/92/6
f 73/28/1 74/39/1 75/40/1 76/29/1
f 77/32/2 78/41/2 79/42/2 80/33/2
f 79/77/3 78/78/3 75/79/3 74/80/3
f 77/81/4 80/82/4 73/83/4 76/84/4
f 78/89/5 77/90/5 76/91/5 75/92/5
f 80/85/6 79/86/6 74/87/6 73/88/6
