# Created using Meshport (https://github.com/random-geek/meshport).
mtllib materials.mtl
v 0.000000 0.062500 -0.875000
v 1.500000 0.062500 -0.875000
v 1.500000 0.062500 -1.000000
v 0.000000 0.062500 -1.000000
v 0.000000 0.000000 -1.000000
v 1.500000 0.000000 -1.000000
v 1.500000 0.000000 -0.875000
v 0.000000 0.000000 -0.875000
v 0.000000 0.500000 -0.875000
v 0.062500 0.500000 -0.875000
v 0.062500 0.500000 -1.000000
v 0.000000 0.500000 -1.000000
v 0.062500 0.062500 -1.000000
v 0.062500 0.062500 -0.875000
v 0.437500 0.500000 -0.875000
v 0.562500 0.500000 -0.875000
v 0.562500 0.500000 -1.000000
v 0.437500 0.500000 -1.000000
v 0.437500 0.062500 -1.000000
v 0.562500 0.062500 -1.000000
v 0.562500 0.062500 -0.875000
v 0.437500 0.062500 -0.875000
v 0.937500 0.500000 -0.875000
v 1.062500 0.500000 -0.875000
v 1.062500 0.500000 -1.000000
v 0.937500 0.500000 -1.000000
v 0.937500 0.062500 -1.000000
v 1.062500 0.062500 -1.000000
v 1.062500 0.062500 -0.875000
v 0.937500 0.062500 -0.875000
v 1.437500 0.500000 -0.875000
v 1.500000 0.500000 -0.875000
v 1.500000 0.500000 -1.000000
v 1.437500 0.500000 -1.000000
v 1.437500 0.062500 -1.000000
v 1.437500 0.062500 -0.875000
v 0.062500 0.187500 -0.875000
v 0.437500 0.187500 -0.875000
v 0.437500 0.187500 -1.000000
v 0.062500 0.187500 -1.000000
v 0.062500 0.125000 -1.000000
v 0.437500 0.125000 -1.000000
v 0.437500 0.125000 -0.875000
v 0.062500 0.125000 -0.875000
v 0.062500 0.375000 -0.875000
v 0.437500 0.375000 -0.875000
v 0.437500 0.375000 -1.000000
v 0.062500 0.375000 -1.000000
v 0.062500 0.312500 -1.000000
v 0.437500 0.312500 -1.000000
v 0.437500 0.312500 -0.875000
v 0.062500 0.312500 -0.875000
v 0.062500 0.437500 -1.000000
v 0.437500 0.437500 -1.000000
v 0.437500 0.437500 -0.875000
v 0.062500 0.437500 -0.875000
v 0.562500 0.187500 -0.875000
v 0.937500 0.187500 -0.875000
v 0.937500 0.187500 -1.000000
v 0.562500 0.187500 -1.000000
v 0.562500 0.125000 -1.000000
v 0.937500 0.125000 -1.000000
v 0.937500 0.125000 -0.875000
v 0.562500 0.125000 -0.875000
v 0.562500 0.375000 -0.875000
v 0.937500 0.375000 -0.875000
v 0.937500 0.375000 -1.000000
v 0.562500 0.375000 -1.000000
v 0.562500 0.312500 -1.000000
v 0.937500 0.312500 -1.000000
v 0.937500 0.312500 -0.875000
v 0.562500 0.312500 -0.875000
v 0.562500 0.437500 -1.000000
v 0.937500 0.437500 -1.000000
v 0.937500 0.437500 -0.875000
v 0.562500 0.437500 -0.875000
v 1.062500 0.187500 -0.875000
v 1.437500 0.187500 -0.875000
v 1.437500 0.187500 -1.000000
v 1.062500 0.187500 -1.000000
v 1.062500 0.125000 -1.000000
v 1.437500 0.125000 -1.000000
v 1.437500 0.125000 -0.875000
v 1.062500 0.125000 -0.875000
v 1.062500 0.375000 -0.875000
v 1.437500 0.375000 -0.875000
v 1.437500 0.375000 -1.000000
v 1.062500 0.375000 -1.000000
v 1.062500 0.312500 -1.000000
v 1.437500 0.312500 -1.000000
v 1.437500 0.312500 -0.875000
v 1.062500 0.312500 -0.875000
v 1.062500 0.437500 -1.000000
v 1.437500 0.437500 -1.000000
v 1.437500 0.437500 -0.875000
v 1.062500 0.437500 -0.875000
vt 0.000000 0.875000
vt 1.500000 0.875000
vt 1.500000 1.000000
vt 0.000000 1.000000
vt 0.000000 0.000000
vt 1.500000 0.000000
vt 1.500000 0.125000
vt 0.000000 0.125000
vt 0.875000 0.000000
vt 1.000000 0.000000
vt 1.000000 0.062500
vt 0.875000 0.062500
vt 0.125000 0.000000
vt 0.125000 0.062500
vt 0.000000 0.062500
vt -0.500000 0.000000
vt -0.500000 0.062500
vt 1.500000 0.062500
vt 0.062500 0.875000
vt 0.062500 1.000000
vt 0.062500 0.000000
vt 0.062500 0.125000
vt 1.000000 0.500000
vt 0.875000 0.500000
vt 0.125000 0.500000
vt 0.000000 0.500000
vt 0.937500 0.062500
vt 0.937500 0.500000
vt 0.062500 0.062500
vt 0.062500 0.500000
vt 0.437500 0.875000
vt 0.562500 0.875000
vt 0.562500 1.000000
vt 0.437500 1.000000
vt 0.437500 0.000000
vt 0.562500 0.000000
vt 0.562500 0.125000
vt 0.437500 0.125000
vt 0.437500 0.062500
vt 0.562500 0.062500
vt 0.562500 0.500000
vt 0.437500 0.500000
vt 0.937500 0.875000
vt 1.062500 0.875000
vt 1.062500 1.000000
vt 0.937500 1.000000
vt 0.937500 0.000000
vt 1.062500 0.000000
vt 1.062500 0.125000
vt 0.937500 0.125000
vt -0.062500 0.062500
vt -0.062500 0.500000
vt 1.062500 0.062500
vt 1.062500 0.500000
vt 1.437500 0.875000
vt 1.437500 1.000000
vt 1.437500 0.000000
vt 1.437500 0.125000
vt -0.437500 0.062500
vt -0.437500 0.500000
vt -0.500000 0.500000
vt 1.437500 0.062500
vt 1.500000 0.500000
vt 1.437500 0.500000
vt 0.875000 0.125000
vt 1.000000 0.125000
vt 1.000000 0.187500
vt 0.875000 0.187500
vt 0.125000 0.125000
vt 0.125000 0.187500
vt 0.000000 0.187500
vt 0.937500 0.187500
vt 0.562500 0.187500
vt 0.437500 0.187500
vt 0.062500 0.187500
vt 0.875000 0.312500
vt 1.000000 0.312500
vt 1.000000 0.375000
vt 0.875000 0.375000
vt 0.000000 0.312500
vt 0.125000 0.312500
vt 0.125000 0.375000
vt 0.000000 0.375000
vt 0.562500 0.312500
vt 0.937500 0.312500
vt 0.937500 0.375000
vt 0.562500 0.375000
vt 0.062500 0.312500
vt 0.437500 0.312500
vt 0.437500 0.375000
vt 0.062500 0.375000
vt 0.875000 0.437500
vt 1.000000 0.437500
vt 0.000000 0.437500
vt 0.125000 0.437500
vt 0.562500 0.437500
vt 0.937500 0.437500
vt 0.062500 0.437500
vt 0.437500 0.437500
vt -0.437500 0.125000
vt -0.062500 0.125000
vt -0.062500 0.187500
vt -0.437500 0.187500
vt 1.437500 0.187500
vt 1.062500 0.187500
vt -0.437500 0.312500
vt -0.062500 0.312500
vt -0.062500 0.375000
vt -0.437500 0.375000
vt 1.062500 0.312500
vt 1.437500 0.312500
vt 1.437500 0.375000
vt 1.062500 0.375000
vt -0.437500 0.437500
vt -0.062500 0.437500
vt 1.062500 0.437500
vt 1.437500 0.437500
vn 0.000000 1.000000 0.000000
vn 0.000000 -1.000000 0.000000
vn 1.000000 0.000000 0.000000
vn -1.000000 0.000000 0.000000
vn 0.000000 0.000000 -1.000000
vn 0.000000 0.000000 1.000000
usemtl window.png
f 1/1/1 2/2/1 3/3/1 4/4/1
f 5/5/2 6/6/2 7/7/2 8/8/2
f 7/9/3 6/10/3 3/11/3 2/12/3
f 5/5/4 8/13/4 1/14/4 4/15/4
f 6/16/5 5/10/5 4/11/5 3/17/5
f 8/5/6 7/6/6 2/18/6 1/15/6
f 9/1/1 10/19/1 11/20/1 12/4/1
f 4/5/2 13/21/2 14/22/2 1/8/2
f 14/12/3 13/11/3 11/23/3 10/24/3
f 4/15/4 1/14/4 9/25/4 12/26/4
f 13/27/5 4/11/5 12/23/5 11/28/5
f 1/15/6 14/29/6 10/30/6 9/26/6
f 15/31/1 16/32/1 17/33/1 18/34/1
f 19/35/2 20/36/2 21/37/2 22/38/2
f 21/12/3 20/11/3 17/23/3 16/24/3
f 19/15/4 22/14/4 15/25/4 18/26/4
f 20/39/5 19/40/5 18/41/5 17/42/5
f 22/39/6 21/40/6 16/41/6 15/42/6
f 23/43/1 24/44/1 25/45/1 26/46/1
f 27/47/2 28/48/2 29/49/2 30/50/2
f 29/12/3 28/11/3 25/23/3 24/24/3
f 27/15/4 30/14/4 23/25/4 26/26/4
f 28/51/5 27/29/5 26/30/5 25/52/5
f 30/27/6 29/53/6 24/54/6 23/28/6
f 31/55/1 32/2/1 33/3/1 34/56/1
f 35/57/2 3/6/2 2/7/2 36/58/2
f 2/12/3 3/11/3 33/23/3 32/24/3
f 35/15/4 36/14/4 31/25/4 34/26/4
f 3/17/5 35/59/5 34/60/5 33/61/5
f 36/62/6 2/18/6 32/63/6 31/64/6
f 23/43/1 24/44/1 24/44/1 23/43/1
f 30/50/2 29/49/2 29/49/2 30/50/2
f 29/12/3 29/12/3 24/24/3 24/24/3
f 30/14/4 30/14/4 23/25/4 23/25/4
f 29/51/5 30/29/5 23/30/5 24/52/5
f 30/27/6 29/53/6 24/54/6 23/28/6
f 31/55/1 32/2/1 32/2/1 31/55/1
f 36/58/2 2/7/2 2/7/2 36/58/2
f 2/12/3 2/12/3 32/24/3 32/24/3
f 36/14/4 36/14/4 31/25/4 31/25/4
f 2/17/5 36/59/5 31/60/5 32/61/5
f 36/62/6 2/18/6 32/63/6 31/64/6
f 37/19/1 38/31/1 39/34/1 40/20/1
f 41/21/2 42/35/2 43/38/2 44/22/2
f 43/65/3 42/66/3 39/67/3 38/68/3
f 41/8/4 44/69/4 37/70/4 40/71/4
f 42/37/5 41/50/5 40/72/5 39/73/5
f 44/22/6 43/38/6 38/74/6 37/75/6
f 45/19/1 46/31/1 47/34/1 48/20/1
f 49/21/2 50/35/2 51/38/2 52/22/2
f 51/76/3 50/77/3 47/78/3 46/79/3
f 49/80/4 52/81/4 45/82/4 48/83/4
f 50/84/5 49/85/5 48/86/5 47/87/5
f 52/88/6 51/89/6 46/90/6 45/91/6
f 10/19/1 15/31/1 18/34/1 11/20/1
f 53/21/2 54/35/2 55/38/2 56/22/2
f 55/92/3 54/93/3 18/23/3 15/24/3
f 53/94/4 56/95/4 10/25/4 11/26/4
f 54/96/5 53/97/5 11/28/5 18/41/5
f 56/98/6 55/99/6 15/42/6 10/30/6
f 57/32/1 58/43/1 59/46/1 60/33/1
f 61/36/2 62/47/2 63/50/2 64/37/2
f 63/65/3 62/66/3 59/67/3 58/68/3
f 61/8/4 64/69/4 57/70/4 60/71/4
f 62/22/5 61/38/5 60/74/5 59/75/5
f 64/37/6 63/50/6 58/72/6 57/73/6
f 65/32/1 66/43/1 67/46/1 68/33/1
f 69/36/2 70/47/2 71/50/2 72/37/2
f 71/76/3 70/77/3 67/78/3 66/79/3
f 69/80/4 72/81/4 65/82/4 68/83/4
f 70/88/5 69/89/5 68/90/5 67/91/5
f 72/84/6 71/85/6 66/86/6 65/87/6
f 16/32/1 23/43/1 26/46/1 17/33/1
f 73/36/2 74/47/2 75/50/2 76/37/2
f 75/92/3 74/93/3 26/23/3 23/24/3
f 73/94/4 76/95/4 16/25/4 17/26/4
f 74/98/5 73/99/5 17/42/5 26/30/5
f 76/96/6 75/97/6 23/28/6 16/41/6
f 77/44/1 78/55/1 79/56/1 80/45/1
f 81/48/2 82/57/2 83/58/2 84/49/2
f 83/65/3 82/66/3 79/67/3 78/68/3
f 81/8/4 84/69/4 77/70/4 80/71/4
f 82/100/5 81/101/5 80/102/5 79/103/5
f 84/49/6 83/58/6 78/104/6 77/105/6
f 85/44/1 86/55/1 87/56/1 88/45/1
f 89/48/2 90/57/2 91/58/2 92/49/2
f 91/76/3 90/77/3 87/78/3 86/79/3
f 89/80/4 92/81/4 85/82/4 88/83/4
f 90/106/5 89/107/5 88/108/5 87/109/5
f 92/110/6 91/111/6 86/112/6 85/113/6
f 24/44/1 31/55/1 34/56/1 25/45/1
f 93/48/2 94/57/2 95/58/2 96/49/2
f 95/92/3 94/93/3 34/23/3 31/24/3
f 93/94/4 96/95/4 24/25/4 25/26/4
f 94/114/5 93/115/5 25/52/5 34/60/5
f 96/116/6 95/117/6 31/64/6 24/54/6
